<svg width="18" height="18" viewBox="0 0 18 18" fill="none" xmlns="http://www.w3.org/2000/svg">
<path fill-rule="evenodd" clip-rule="evenodd" d="M16.485 7.33531C16.7431 7.33531 16.9542 7.54639 16.9542 7.80437C16.9542 7.93335 16.9034 8.05062 16.8174 8.13661C16.7313 8.21869 16.614 8.27342 16.485 8.27342H16.0274L15.4486 11.1034C15.433 11.1815 15.3978 11.248 15.3509 11.3066L14.6508 14.5782C14.4358 15.661 13.4776 16.4466 12.3709 16.4466H10.2005H7.24399H5.07356C3.96684 16.4466 3.00872 15.661 2.79363 14.5782L2.09362 11.3105C2.04669 11.2558 2.01149 11.1854 1.99585 11.1073L1.41707 8.27732H0.959517C0.830464 8.27732 0.717054 8.2226 0.631019 8.14052C0.631019 8.13661 0.627108 8.13661 0.627108 8.13661C0.544984 8.05062 0.490234 7.93335 0.490234 7.80437C0.490234 7.59329 0.627108 7.41349 0.818732 7.35486C0.86566 7.34313 0.912589 7.33531 0.959517 7.33531H1.80032H1.80423H1.81596H2.17574L7.26746 1.67935C7.36522 1.57381 7.49819 1.523 7.63506 1.5269C7.74065 1.5269 7.84624 1.5699 7.93227 1.64417C8.1239 1.81615 8.13954 2.11322 7.96747 2.30475L3.45454 7.33531H13.9899L9.477 2.30475C9.30493 2.11322 9.32057 1.81615 9.51219 1.64417C9.59823 1.5699 9.70382 1.53081 9.80941 1.5269C9.94237 1.51909 10.0792 1.5699 10.177 1.67935L15.2687 7.33531H15.6402H15.6442H16.485ZM13.7318 14.3906V14.3828L15.0419 8.27342H2.40256L3.71264 14.3828V14.3906C3.84169 15.0395 4.41265 15.5085 5.07356 15.5085H7.24399H10.2005H12.3709C13.0318 15.5085 13.6028 15.0395 13.7318 14.3906Z" fill="#F9F9FB"/>
</svg>
