<svg width="14" height="14" viewBox="0 0 14 14" fill="none" xmlns="http://www.w3.org/2000/svg">
<path fill-rule="evenodd" clip-rule="evenodd" d="M8.46468 4.2832V8.02614C8.46468 8.17653 8.34772 8.29349 8.19733 8.29349H5.52388C5.3735 8.29349 5.25653 8.17653 5.25653 8.02614V7.49144C5.25653 7.34105 5.3735 7.22408 5.52388 7.22408H7.3953V4.2832C7.3953 4.13282 7.51226 4.01585 7.66264 4.01585H8.19733C8.34772 4.01585 8.46468 4.13282 8.46468 4.2832ZM11.9402 7.22408C11.9402 4.71765 9.90166 2.67909 7.3953 2.67909C4.88893 2.67909 2.85042 4.71765 2.85042 7.22408C2.85042 9.73051 4.88893 11.7691 7.3953 11.7691C9.90166 11.7691 11.9402 9.73051 11.9402 7.22408ZM13.8116 7.22408C13.8116 10.7665 10.9376 13.6405 7.3953 13.6405C3.85297 13.6405 0.979004 10.7665 0.979004 7.22408C0.979004 3.68166 3.85297 0.807617 7.3953 0.807617C10.9376 0.807617 13.8116 3.68166 13.8116 7.22408Z" fill="#BDBDBD"/>
</svg>
