<svg width="23" height="23" viewBox="0 0 23 23" fill="none" xmlns="http://www.w3.org/2000/svg">
<path d="M5.68922 13.6735L4.92837 16.5139L2.14746 16.5727C1.31637 15.0312 0.844971 13.2676 0.844971 11.3934C0.844971 9.58108 1.28572 7.87203 2.06698 6.36719H2.06758L4.54337 6.82109L5.62792 9.28202C5.40092 9.94379 5.2772 10.6542 5.2772 11.3934C5.27729 12.1957 5.42261 12.9643 5.68922 13.6735Z" fill="#FBBB00"/>
<path d="M22.5123 9.35156C22.6378 10.0127 22.7033 10.6955 22.7033 11.3933C22.7033 12.1757 22.621 12.939 22.4643 13.6752C21.9322 16.1805 20.5421 18.3681 18.6163 19.9162L18.6157 19.9156L15.4973 19.7565L15.0559 17.0014C16.3338 16.2519 17.3325 15.0792 17.8585 13.6752H12.0144V9.35156H17.9438H22.5123Z" fill="#518EF8"/>
<path d="M18.6156 19.916L18.6162 19.9166C16.7433 21.4221 14.3641 22.3228 11.7741 22.3228C7.61203 22.3228 3.99342 19.9965 2.14746 16.573L5.68922 13.6738C6.61218 16.1371 8.98837 17.8906 11.7741 17.8906C12.9715 17.8906 14.0933 17.5669 15.0558 17.0018L18.6156 19.916Z" fill="#28B446"/>
<path d="M18.75 2.98045L15.2095 5.87906C14.2133 5.25635 13.0356 4.89663 11.774 4.89663C8.92522 4.89663 6.50459 6.73055 5.62787 9.28211L2.06749 6.36728H2.06689C3.88583 2.86035 7.55007 0.464355 11.774 0.464355C14.4258 0.464355 16.8573 1.40896 18.75 2.98045Z" fill="#F14336"/>
</svg>
