<svg width="15" height="11" viewBox="0 0 15 11" fill="none" xmlns="http://www.w3.org/2000/svg">
<path fill-rule="evenodd" clip-rule="evenodd" d="M8.30532 9.80725H12.8884V8.89061H8.30532V9.80725ZM5.55548 6.1407H12.8884V5.22406H5.55548V6.1407ZM10.1385 2.47414H12.8884V1.55751H10.1385V2.47414ZM13.805 8.43229V10.2656C13.805 10.5162 13.5973 10.7239 13.3467 10.7239H1.43072C1.18008 10.7239 0.972412 10.5162 0.972412 10.2656V8.43229C0.972412 8.18165 1.18008 7.97397 1.43072 7.97397H13.3467C13.5973 7.97397 13.805 8.18165 13.805 8.43229ZM13.805 4.76574V6.59902C13.805 6.84966 13.5973 7.05733 13.3467 7.05733H1.43072C1.18008 7.05733 0.972412 6.84966 0.972412 6.59902V4.76574C0.972412 4.5151 1.18008 4.30742 1.43072 4.30742H13.3467C13.5973 4.30742 13.805 4.5151 13.805 4.76574ZM13.805 1.09919V2.93246C13.805 3.18311 13.5973 3.39078 13.3467 3.39078H1.43072C1.18008 3.39078 0.972412 3.18311 0.972412 2.93246V1.09919C0.972412 0.848545 1.18008 0.640869 1.43072 0.640869H13.3467C13.5973 0.640869 13.805 0.848545 13.805 1.09919Z" fill="#BDBDBD"/>
</svg>
