<svg width="12" height="14" viewBox="0 0 12 14" fill="none" xmlns="http://www.w3.org/2000/svg">
<path fill-rule="evenodd" clip-rule="evenodd" d="M5.38507 1.26594C5.38507 1.01529 5.1774 0.807617 4.92676 0.807617C4.67613 0.807617 4.46846 1.01529 4.46846 1.26594V4.24501C4.46846 4.49565 4.26079 4.70333 4.01015 4.70333C3.75951 4.70333 3.55184 4.49565 3.55184 4.24501V1.26594C3.55184 1.01529 3.34417 0.807617 3.09354 0.807617C2.8429 0.807617 2.63523 1.01529 2.63523 1.26594V4.24501C2.63523 4.49565 2.42756 4.70333 2.17692 4.70333C1.92629 4.70333 1.71862 4.49565 1.71862 4.24501V1.26594C1.71862 1.01529 1.51095 0.807617 1.26031 0.807617C1.00967 0.807617 0.802002 1.01529 0.802002 1.26594V5.84913C0.802002 6.42919 1.17438 6.95196 1.71862 7.14531V12.7239C1.71862 13.2252 2.13396 13.6405 2.63523 13.6405H3.55184C4.05311 13.6405 4.46846 13.2252 4.46846 12.7239V7.14531C5.01269 6.95196 5.38507 6.42919 5.38507 5.84913V1.26594ZM10.8847 1.26594C10.8847 1.01529 10.6771 0.807617 10.4264 0.807617H8.59322C7.33287 0.807617 6.30168 1.83883 6.30168 3.09921V8.8282C6.30168 8.94994 6.4091 9.05736 6.53084 9.05736H8.13491V12.7239C8.13491 13.2252 8.55025 13.6405 9.05152 13.6405H9.96814C10.4694 13.6405 10.8847 13.2252 10.8847 12.7239V1.26594Z" fill="#BDBDBD"/>
</svg>
