<svg width="65" height="66" viewBox="0 0 65 66" fill="none" xmlns="http://www.w3.org/2000/svg">
<circle cx="32.5" cy="32.885" r="32.5" fill="url(#paint0_linear_0_55)"/>
<path fill-rule="evenodd" clip-rule="evenodd" d="M31.2727 16.635C31.2727 15.9514 30.7166 15.385 30.0455 15.385C29.3743 15.385 28.8182 15.9514 28.8182 16.635V24.76C28.8182 25.4436 28.2621 26.01 27.5909 26.01C26.9197 26.01 26.3636 25.4436 26.3636 24.76V16.635C26.3636 15.9514 25.8075 15.385 25.1364 15.385C24.4652 15.385 23.9091 15.9514 23.9091 16.635V24.76C23.9091 25.4436 23.353 26.01 22.6818 26.01C22.0107 26.01 21.4545 25.4436 21.4545 24.76V16.635C21.4545 15.9514 20.8984 15.385 20.2273 15.385C19.5561 15.385 19 15.9514 19 16.635V29.135C19 30.717 19.9972 32.1428 21.4545 32.6702V47.885C21.4545 49.2522 22.5668 50.385 23.9091 50.385H26.3636C27.706 50.385 28.8182 49.2522 28.8182 47.885V32.6702C30.2756 32.1428 31.2727 30.717 31.2727 29.135V16.635ZM46 16.635C46 15.9514 45.4439 15.385 44.7727 15.385H39.8636C36.4886 15.385 33.7273 18.1975 33.7273 21.635V37.26C33.7273 37.592 34.0149 37.885 34.3409 37.885H38.6364V47.885C38.6364 49.2522 39.7486 50.385 41.0909 50.385H43.5455C44.8878 50.385 46 49.2522 46 47.885V16.635Z" fill="white"/>
<defs>
<linearGradient id="paint0_linear_0_55" x1="5.76289" y1="4.87878" x2="14.7504" y2="58.353" gradientUnits="userSpaceOnUse">
<stop stop-color="#FBD249"/>
<stop offset="1" stop-color="#F5A623"/>
</linearGradient>
</defs>
</svg>
