<svg width="18" height="18" viewBox="0 0 18 18" fill="none" xmlns="http://www.w3.org/2000/svg">
<path fill-rule="evenodd" clip-rule="evenodd" d="M0.849592 3.97998H16.5949C16.7844 3.97998 16.9379 4.13351 16.9379 4.32298V14.822C16.9379 15.0115 16.7844 15.165 16.5949 15.165H0.849592C0.660125 15.165 0.506592 15.0115 0.506592 14.822V11.147C0.506592 10.9576 0.660125 10.804 0.849592 10.804C1.52906 10.804 2.08113 10.252 2.08113 9.57251C2.08113 8.89305 1.52906 8.34098 0.849592 8.34098C0.660125 8.34098 0.506592 8.18745 0.506592 7.99798V4.32298C0.506592 4.13351 0.660125 3.97998 0.849592 3.97998ZM5.91619 14.479H16.2519V4.67251H5.91619V4.85545C5.91619 5.04491 5.76266 5.19845 5.57319 5.19845C5.38372 5.19845 5.23019 5.04491 5.23019 4.85545V4.67251H1.19259V7.68765L1.30366 7.71378C2.16606 7.92285 2.76712 8.69051 2.76712 9.57578C2.76712 10.461 2.16606 11.2287 1.30366 11.4378L1.19259 11.4639V14.479H5.23019V14.2961C5.23019 14.1066 5.38372 13.9531 5.57319 13.9531C5.76266 13.9531 5.91619 14.1066 5.91619 14.2961V14.479Z" fill="#FAFAFA"/>
<path d="M5.91622 8.17435V7.64842C5.91622 7.45895 5.76269 7.30542 5.57322 7.30542C5.38376 7.30542 5.23022 7.45895 5.23022 7.64842V8.17435C5.23022 8.36382 5.38376 8.51735 5.57322 8.51735C5.76269 8.51735 5.91622 8.36055 5.91622 8.17435Z" fill="#FAFAFA"/>
<path d="M5.91622 11.4966V10.9707C5.91622 10.7812 5.76269 10.6277 5.57322 10.6277C5.38376 10.6277 5.23022 10.7812 5.23022 10.9707V11.4966C5.23022 11.6861 5.38376 11.8396 5.57322 11.8396C5.76269 11.8396 5.91622 11.6861 5.91622 11.4966Z" fill="#FAFAFA"/>
</svg>
