<svg width="17" height="18" viewBox="0 0 17 18" fill="none" xmlns="http://www.w3.org/2000/svg">
<path fill-rule="evenodd" clip-rule="evenodd" d="M12.8089 12.5054L16.8099 16.5065C16.9997 16.6963 16.9997 17.0102 16.8099 17.2001C16.715 17.2986 16.5872 17.3461 16.4631 17.3461C16.339 17.3461 16.2112 17.295 16.1163 17.2001L12.1153 13.199C10.8814 14.2723 9.27153 14.9221 7.51196 14.9221C3.64237 14.9221 0.491943 11.7717 0.491943 7.9021C0.491943 4.03251 3.63872 0.88208 7.51196 0.88208C11.3815 0.88208 14.532 4.02886 14.532 7.9021C14.532 9.66166 13.8822 11.2716 12.8089 12.5054ZM7.50831 1.86773C4.18265 1.86773 1.47394 4.57279 1.47394 7.9021C1.47394 11.2314 4.18265 13.9401 7.50831 13.9401C10.8376 13.9401 13.5427 11.2278 13.5427 7.9021C13.5427 4.57644 10.8376 1.86773 7.50831 1.86773Z" fill="#FAFAFA"/>
</svg>
