<svg width="17" height="17" viewBox="0 0 17 17" fill="none" xmlns="http://www.w3.org/2000/svg">
<path fill-rule="evenodd" clip-rule="evenodd" d="M16.8456 8.01703V9.48243C16.8456 9.93493 16.5219 10.3213 16.0729 10.3944L14.8407 10.5998L14.8233 10.6624C14.7119 11.0314 14.5553 11.4073 14.3604 11.7797L14.3291 11.8354L15.0531 12.8588C15.3141 13.2277 15.2723 13.729 14.9521 14.0492L13.9148 15.0865C13.7373 15.2605 13.5076 15.358 13.2605 15.358C13.0621 15.358 12.8776 15.2988 12.7209 15.1874L11.7046 14.4599L11.6489 14.4912C11.2938 14.6792 10.9214 14.8324 10.5315 14.9542L10.4689 14.9716L10.26 16.2038C10.187 16.6528 9.80059 16.9765 9.34809 16.9765H7.87921C7.42671 16.9765 7.04382 16.6528 6.96725 16.2038L6.76188 14.9716L6.69923 14.9542C6.31635 14.8358 5.95087 14.6862 5.61671 14.5086L5.56102 14.4773L4.53071 15.2118C4.37756 15.3231 4.19308 15.3823 3.99816 15.3823C3.75102 15.3823 3.51781 15.2849 3.34378 15.1108L2.30651 14.0736C1.9828 13.7568 1.94103 13.2556 2.20557 12.8831L2.92956 11.8772L2.89824 11.818C2.7068 11.4595 2.54668 11.0871 2.42833 10.7042L2.41093 10.6415L1.16482 10.4292C0.715801 10.3561 0.39209 9.96973 0.39209 9.51724V8.05184C0.39209 7.59934 0.715801 7.21297 1.16482 7.13639L2.38309 6.93103L2.40049 6.86838C2.51883 6.47853 2.67199 6.09913 2.85647 5.74757L2.8878 5.69188L2.15335 4.66157C1.8923 4.29261 1.93407 3.79138 2.2543 3.47115L3.29156 2.43389C3.4656 2.25985 3.69533 2.16239 3.94595 2.16239C4.14087 2.16239 4.32535 2.22156 4.48198 2.33294L5.4914 3.06042L5.55058 3.0291C5.9091 2.83766 6.28154 2.67754 6.66442 2.55919L6.72707 2.54179L6.94288 1.29568C7.01598 0.84666 7.40234 0.522949 7.85484 0.522949H9.32024C9.77274 0.522949 10.1591 0.84666 10.2357 1.29916L10.441 2.51743L10.5037 2.53483C10.897 2.65317 11.2869 2.81329 11.6628 3.01169L11.7185 3.04302L12.7383 2.31554C12.8915 2.20416 13.076 2.14498 13.2709 2.14498C13.518 2.14498 13.7513 2.24245 13.9253 2.41648L14.9626 3.45375C15.2863 3.7705 15.328 4.27173 15.0635 4.64417L14.336 5.66055L14.3673 5.71624C14.5553 6.07128 14.7085 6.4472 14.8303 6.83357L14.8477 6.89622L16.0799 7.10507C16.5289 7.17816 16.8526 7.56105 16.8456 8.01703ZM16.0938 9.58685H16.1216V8.02051C16.1216 7.92305 16.052 7.83951 15.9581 7.82559L14.4961 7.57845C14.3534 7.55757 14.2386 7.45314 14.2037 7.31043C14.068 6.78136 13.8592 6.28361 13.5877 5.82415C13.5146 5.69884 13.5215 5.54221 13.6051 5.42734L14.4648 4.21952L14.4683 4.21604C14.5205 4.13598 14.5101 4.03504 14.4439 3.9689L13.4067 2.93164C13.3579 2.87942 13.2988 2.87246 13.2674 2.87246C13.2326 2.87246 13.1978 2.88291 13.163 2.90379L11.9552 3.7705C11.8368 3.85752 11.6837 3.861 11.5584 3.7879C11.085 3.50944 10.5733 3.3006 10.0373 3.16485C9.89805 3.13004 9.79014 3.01169 9.76578 2.86898L9.52213 1.4175C9.50472 1.32352 9.42466 1.25391 9.3272 1.25391H7.8618C7.76434 1.25391 7.6808 1.32352 7.66688 1.4175L7.41627 2.88987C7.3919 3.0291 7.28748 3.14396 7.14825 3.18225C6.63309 3.31452 6.13186 3.52337 5.66544 3.80531C5.54013 3.8784 5.3835 3.87144 5.26516 3.7879L4.06777 2.92815C4.03297 2.90379 3.99468 2.88987 3.95291 2.88987C3.9007 2.88987 3.85197 2.91075 3.81368 2.94904L2.77641 3.98631C2.71028 4.05592 2.69983 4.16383 2.75553 4.2404L3.62224 5.45867C3.70577 5.57353 3.71274 5.73017 3.63964 5.85199C3.37162 6.30797 3.16626 6.8092 3.03399 7.34176C2.99918 7.48099 2.88083 7.58889 2.73812 7.61326L1.28665 7.85691C1.19266 7.87432 1.12305 7.95437 1.12305 8.05184V9.51724C1.12305 9.6147 1.19266 9.69824 1.28665 9.71216L2.76249 9.96277C2.90172 9.98714 3.01658 10.0916 3.05487 10.2308C3.18714 10.7459 3.39599 11.2472 3.67793 11.7136C3.75102 11.8389 3.74406 11.9955 3.66052 12.1139L2.80774 13.3147L2.80426 13.3182C2.75205 13.3983 2.76249 13.4992 2.82862 13.5654L3.86589 14.6026C3.91462 14.6548 3.97379 14.6618 4.00512 14.6618C4.03993 14.6618 4.07473 14.6514 4.10954 14.6305L5.33477 13.7568C5.39394 13.715 5.46704 13.6907 5.54362 13.6907C5.60627 13.6907 5.6724 13.7081 5.7281 13.7394C6.19104 14.0039 6.68182 14.2058 7.18305 14.3346C7.32228 14.3694 7.42671 14.4843 7.45107 14.627L7.69473 16.0889C7.71213 16.1829 7.79219 16.2525 7.88965 16.2525H9.35505C9.45251 16.2525 9.53605 16.1829 9.54997 16.0889L9.79711 14.627C9.81799 14.4843 9.92241 14.3694 10.0651 14.3346C10.5942 14.1989 11.0919 13.99 11.5514 13.7185C11.6767 13.6454 11.8334 13.6524 11.9482 13.7359L13.1526 14.5957C13.1874 14.62 13.2257 14.634 13.2674 14.634C13.3196 14.634 13.3684 14.6131 13.4067 14.5748L14.4439 13.5375C14.5101 13.4679 14.5205 13.36 14.4648 13.2834L13.6051 12.0721C13.5215 11.9538 13.5146 11.8006 13.5877 11.6753C13.8592 11.2158 14.068 10.7181 14.2037 10.189C14.2386 10.0498 14.3534 9.94537 14.4961 9.921L15.9581 9.67735C16.0172 9.66691 16.066 9.6321 16.0938 9.58685Z" fill="#FAFAFA"/>
<path fill-rule="evenodd" clip-rule="evenodd" d="M5.12939 8.74804C5.12939 6.82318 6.69574 5.25684 8.6206 5.25684C10.5455 5.25684 12.1118 6.82318 12.1118 8.74804C12.1118 10.6729 10.5455 12.2392 8.6206 12.2392C6.69574 12.2392 5.12939 10.6729 5.12939 8.74804ZM5.86035 8.74804C5.86035 10.2691 7.09951 11.5083 8.6206 11.5083C10.1417 11.5083 11.3808 10.2691 11.3808 8.74804C11.3808 7.22695 10.1417 5.9878 8.6206 5.9878C7.09951 5.9878 5.86035 7.22695 5.86035 8.74804Z" fill="#FAFAFA"/>
</svg>
