<svg width="18" height="18" viewBox="0 0 18 18" fill="none" xmlns="http://www.w3.org/2000/svg">
<path fill-rule="evenodd" clip-rule="evenodd" d="M15.4297 13.4546C16.2095 13.4546 16.8428 12.8213 16.8428 12.0415V9.28856C16.8428 8.50869 16.2095 7.87546 15.4297 7.87546H14.6698L14.6564 7.68882C14.4765 4.48934 11.8236 1.98975 8.61742 1.98975C5.41128 1.98975 2.75837 4.49601 2.5784 7.68882L2.56507 7.87546H1.80519C1.02532 7.87546 0.39209 8.50869 0.39209 9.28856V12.0415C0.39209 12.8213 1.02532 13.4546 1.80519 13.4546H2.58507L2.61173 13.6212C2.89168 15.3343 4.35145 16.5807 6.09117 16.5807H7.11767L7.17099 16.694C7.27098 16.9007 7.47761 17.034 7.7109 17.034H9.24399C9.57727 17.034 9.84389 16.7674 9.84389 16.4341V15.9342C9.84389 15.6009 9.57727 15.3343 9.24399 15.3343H7.7109C7.47761 15.3343 7.27098 15.4609 7.17099 15.6742L7.11767 15.7875H6.09117C4.59141 15.7875 3.37161 14.5677 3.36494 13.0746V13.0546V8.0421C3.36494 5.14923 5.71789 2.78962 8.61742 2.78962C11.5103 2.78962 13.8699 5.14257 13.8699 8.0421V13.0613C13.8699 13.2812 14.0499 13.4612 14.2698 13.4612H15.4297V13.4546ZM14.6698 8.67533H15.4297C15.7696 8.67533 16.0429 8.94862 16.0429 9.28856V12.0415C16.0429 12.3814 15.7696 12.6547 15.4297 12.6547H14.6698V8.67533ZM1.80519 12.6547H2.56507V8.67533H1.80519C1.46525 8.67533 1.19196 8.94862 1.19196 9.28856V12.0415C1.19196 12.3814 1.46525 12.6547 1.80519 12.6547Z" fill="#FAFAFA"/>
</svg>
